<svg width="241" height="39" viewBox="0 0 241 39" fill="none" xmlns="http://www.w3.org/2000/svg">
<g clip-path="url(#clip0_511_2761)">
<path d="M45.9789 8.879C45.9928 8.6906 46.0785 8.51473 46.2183 8.38765C46.3581 8.26057 46.5413 8.19197 46.7302 8.19598H49.4623C49.6616 8.19598 49.8527 8.27514 49.9936 8.41604C50.1345 8.55694 50.2136 8.74804 50.2136 8.9473V17.4168L58.123 8.51017C58.1912 8.41076 58.2831 8.32996 58.3905 8.27509C58.4978 8.22022 58.6172 8.19303 58.7377 8.19598H61.8796C62.0119 8.19 62.1428 8.2242 62.2553 8.29407C62.3677 8.36394 62.4564 8.46621 62.5096 8.58743C62.5628 8.70865 62.5781 8.84313 62.5534 8.9732C62.5288 9.10327 62.4653 9.22282 62.3714 9.31614L54.1751 18.5369L62.9588 29.0418C63.0342 29.1455 63.0796 29.268 63.0898 29.3958C63.1001 29.5236 63.0749 29.6518 63.017 29.7662C62.9591 29.8806 62.8707 29.9768 62.7616 30.0443C62.6525 30.1117 62.5269 30.1477 62.3987 30.1483H58.9836C58.878 30.1543 58.7723 30.1379 58.6734 30.1003C58.5745 30.0626 58.4847 30.0045 58.4099 29.9297L50.2136 19.821V29.3833C50.2136 29.5838 50.1349 29.7764 49.9944 29.9194C49.8539 30.0625 49.6628 30.1447 49.4623 30.1483H46.7302C46.6304 30.1483 46.5316 30.1284 46.4395 30.0898C46.3474 30.0512 46.264 29.9946 46.1941 29.9234C46.1241 29.8522 46.069 29.7677 46.0321 29.675C45.9952 29.5823 45.9771 29.4831 45.9789 29.3833V8.879Z" fill="black"/>
<path d="M65.2678 8.81193C65.2805 8.63497 65.3565 8.46852 65.482 8.34307C65.6074 8.21763 65.7739 8.14159 65.9508 8.12891H68.4917C68.6731 8.13226 68.8463 8.20489 68.9758 8.33189C69.1054 8.45889 69.1814 8.63065 69.1884 8.81193V16.5027C70.2298 15.6624 71.5393 15.2259 72.8767 15.2733C77.4939 15.2733 78.7507 18.4698 78.7507 22.1035V29.3708C78.7439 29.5535 78.6683 29.7268 78.5391 29.856C78.4099 29.9852 78.2366 30.0608 78.054 30.0675H75.5131C75.3307 30.064 75.157 29.989 75.0293 29.8587C74.9016 29.7284 74.8301 29.5533 74.8301 29.3708V22.0762C74.8301 20.0681 73.9149 18.8523 72.1937 18.8523C71.4694 18.8379 70.7647 19.0879 70.2115 19.5556C69.6583 20.0233 69.2946 20.6766 69.1884 21.3932V29.3845C69.1884 29.7943 68.9971 30.0812 68.4234 30.0812H65.9508C65.7696 30.0742 65.5978 29.9982 65.4708 29.8687C65.3438 29.7391 65.2712 29.5659 65.2678 29.3845V8.81193Z" fill="black"/>
<path d="M86.7135 20.9152C87.6382 20.9311 88.5568 21.0689 89.4456 21.325C89.4456 19.4808 88.9811 18.5929 87.4375 18.5929C86.0558 18.6163 84.6811 18.795 83.3394 19.1257C82.8612 19.2896 82.588 18.9481 82.5197 18.511L82.2055 16.8717C82.1719 16.7841 82.1574 16.6903 82.163 16.5966C82.1687 16.5029 82.1944 16.4116 82.2385 16.3287C82.2825 16.2458 82.3438 16.1734 82.4183 16.1162C82.4927 16.0591 82.5786 16.0186 82.67 15.9974C84.2822 15.5314 85.9506 15.2878 87.6287 15.2734C92.1503 15.2734 93.0929 17.623 93.0929 21.5845V29.3846C93.0929 29.5694 93.0195 29.7466 92.8888 29.8773C92.7582 30.0079 92.581 30.0813 92.3962 30.0813H91.3307C91.0848 30.0813 90.8936 29.9857 90.7023 29.5759L90.2925 28.606C89.6918 29.1942 88.9806 29.6576 88.1998 29.9695C87.419 30.2813 86.5842 30.4354 85.7436 30.4228C85.0848 30.4638 84.425 30.363 83.8084 30.1274C83.1919 29.8917 82.6331 29.5266 82.1696 29.0567C81.7062 28.5867 81.3489 28.0229 81.1218 27.4032C80.8947 26.7834 80.8031 26.1222 80.8532 25.4641C80.9351 22.8959 83.0388 20.9152 86.7135 20.9152ZM86.8091 27.4995C87.3374 27.4847 87.8532 27.3351 88.3074 27.065C88.7617 26.7948 89.1394 26.413 89.4046 25.9559V23.8385C88.7283 23.5592 88.0052 23.4109 87.2736 23.4014C85.607 23.4014 84.7054 24.18 84.7054 25.4641C84.686 25.7423 84.7277 26.0214 84.8275 26.2818C84.9274 26.5422 85.083 26.7776 85.2834 26.9715C85.4838 27.1655 85.7243 27.3132 85.9878 27.4044C86.2514 27.4956 86.5317 27.5281 86.8091 27.4995Z" fill="black"/>
<path d="M96.4285 16.2816C96.4285 16.0968 96.5019 15.9196 96.6325 15.789C96.7632 15.6583 96.9404 15.5849 97.1252 15.5849H98.3546C98.4904 15.5746 98.6254 15.6129 98.7355 15.693C98.8456 15.7731 98.9236 15.8897 98.9557 16.022L99.4884 17.3881C100.055 16.7042 100.771 16.159 101.58 15.7944C102.39 15.4297 103.273 15.2553 104.16 15.2844C108.764 15.2844 109.952 18.3853 109.952 21.896V29.3956C109.939 29.5675 109.864 29.7288 109.741 29.8494C109.618 29.9701 109.455 30.0418 109.283 30.0513H106.687C106.503 30.0513 106.325 29.9779 106.195 29.8472C106.064 29.7166 105.991 29.5394 105.991 29.3546V21.855C105.991 19.9836 105.239 18.8224 103.491 18.8224C102.793 18.8034 102.108 19.0134 101.541 19.4205C100.973 19.8275 100.555 20.4091 100.349 21.0764V29.3546C100.349 29.8874 100.13 30.0513 99.4474 30.0513H97.1252C96.9425 30.0445 96.7692 29.9689 96.64 29.8397C96.5108 29.7105 96.4352 29.5372 96.4285 29.3546V16.2816Z" fill="black"/>
<path d="M117.327 29.262L127.04 8.1976C127.082 8.09243 127.156 8.00306 127.251 7.94187C127.347 7.88068 127.459 7.8507 127.572 7.85609H127.887C127.998 7.85155 128.108 7.88206 128.201 7.94333C128.294 8.00459 128.366 8.09352 128.406 8.1976L138.064 29.3029C138.11 29.3911 138.132 29.49 138.127 29.5895C138.123 29.689 138.092 29.7854 138.037 29.8689C137.983 29.9525 137.908 30.02 137.819 30.0646C137.729 30.1091 137.63 30.1292 137.531 30.1226H134.799C134.598 30.1349 134.399 30.0798 134.233 29.966C134.067 29.8521 133.944 29.686 133.883 29.4942L132.353 26.1064H123.037L121.493 29.4942C121.428 29.6801 121.305 29.8406 121.144 29.9534C120.982 30.0661 120.789 30.1253 120.592 30.1226H117.86C117.753 30.1407 117.643 30.1265 117.544 30.0817C117.445 30.037 117.361 29.9638 117.304 29.8714C117.247 29.779 117.218 29.6717 117.223 29.5632C117.227 29.4546 117.263 29.3497 117.327 29.262ZM130.864 22.582L127.736 15.6835H127.641L124.567 22.582H130.864Z" fill="black"/>
<path d="M146.165 15.2736C147.202 15.2676 148.227 15.4869 149.171 15.9162C150.114 16.3454 150.953 16.9744 151.63 17.7597C151.944 18.0739 151.794 18.4838 151.479 18.7979L150.113 20.2459C149.799 20.5875 149.458 20.4235 149.171 20.1503C148.805 19.7513 148.359 19.4333 147.863 19.2168C147.366 19.0004 146.83 18.8903 146.288 18.8936C145.772 18.8893 145.26 18.9903 144.784 19.1905C144.308 19.3907 143.878 19.6859 143.52 20.0579C143.162 20.43 142.884 20.8712 142.702 21.3544C142.521 21.8377 142.439 22.353 142.463 22.8687C142.432 23.386 142.506 23.9043 142.683 24.3914C142.86 24.8786 143.135 25.3243 143.491 25.7008C143.847 26.0774 144.277 26.3768 144.753 26.5804C145.23 26.7841 145.743 26.8878 146.261 26.8849C146.863 26.8781 147.455 26.7299 147.988 26.4522C148.522 26.1746 148.983 25.7753 149.335 25.2866C149.447 25.1632 149.601 25.0853 149.767 25.0677C149.933 25.05 150.1 25.0939 150.236 25.191L151.602 26.3795C151.944 26.6937 152.108 27.0488 151.848 27.4177C151.244 28.3848 150.395 29.1756 149.388 29.7104C148.381 30.2453 147.25 30.5051 146.111 30.4639C145.089 30.5073 144.069 30.3436 143.112 29.9825C142.155 29.6214 141.281 29.0704 140.543 28.3628C139.805 27.6551 139.217 26.8054 138.816 25.8647C138.414 24.9241 138.208 23.9119 138.208 22.8892C138.208 21.8665 138.414 20.8544 138.816 19.9137C139.217 18.9731 139.805 18.1234 140.543 17.4157C141.281 16.7081 142.155 16.1571 143.112 15.796C144.069 15.4349 145.089 15.2711 146.111 15.3145L146.165 15.2736Z" fill="black"/>
<path d="M159.596 20.9152C160.521 20.933 161.439 21.0707 162.328 21.325C162.328 19.4808 161.85 18.5929 160.32 18.5929C158.939 18.6164 157.564 18.7951 156.222 19.1257C155.758 19.2896 155.471 18.9481 155.416 18.511L155.102 16.8717C155.068 16.7841 155.054 16.6903 155.06 16.5966C155.065 16.5029 155.091 16.4116 155.135 16.3287C155.179 16.2458 155.24 16.1734 155.315 16.1162C155.389 16.0591 155.475 16.0186 155.566 15.9974C157.179 15.5314 158.847 15.2878 160.525 15.2734C165.033 15.2734 165.989 17.623 165.989 21.5845V29.3846C165.989 29.5671 165.918 29.7422 165.79 29.8725C165.662 30.0028 165.489 30.0777 165.306 30.0813H164.241C163.981 30.0813 163.804 29.9857 163.612 29.5759L163.203 28.606C162.601 29.193 161.89 29.6556 161.109 29.9674C160.329 30.2791 159.494 30.4339 158.654 30.4228C157.995 30.4638 157.335 30.363 156.719 30.1274C156.102 29.8917 155.543 29.5266 155.08 29.0567C154.616 28.5867 154.259 28.0229 154.032 27.4032C153.805 26.7834 153.713 26.1222 153.763 25.4641C153.832 22.8959 155.935 20.9152 159.596 20.9152ZM159.692 27.4995C160.222 27.4845 160.74 27.3349 161.196 27.0649C161.652 26.7949 162.033 26.4132 162.301 25.9559V23.8385C161.625 23.5592 160.902 23.4109 160.17 23.4014C158.503 23.4014 157.602 24.18 157.602 25.4641C157.58 25.7416 157.62 26.0205 157.718 26.2809C157.817 26.5414 157.971 26.7771 158.17 26.9713C158.37 27.1655 158.609 27.3135 158.872 27.4047C159.135 27.496 159.415 27.5284 159.692 27.4995Z" fill="black"/>
<path d="M175.697 15.2733C176.884 15.2749 178.062 15.4782 179.181 15.8744V8.81193C179.193 8.63497 179.27 8.46852 179.395 8.34307C179.52 8.21763 179.687 8.14159 179.864 8.12891H182.405C182.586 8.13226 182.759 8.20489 182.889 8.33189C183.018 8.45889 183.094 8.63065 183.101 8.81193V29.3845C183.101 29.5693 183.028 29.7465 182.897 29.8771C182.767 30.0078 182.589 30.0812 182.405 30.0812H181.243C180.902 30.0812 180.683 29.7943 180.56 29.3845L180.178 28.2507C179.594 28.9327 178.869 29.48 178.053 29.8549C177.237 30.2299 176.349 30.4236 175.451 30.4227C171.49 30.4227 168.512 27.2262 168.512 22.8275C168.452 21.851 168.594 20.8726 168.929 19.9533C169.264 19.0341 169.784 18.1937 170.459 17.4848C171.133 16.7759 171.946 16.2137 172.848 15.8332C173.749 15.4527 174.719 15.2621 175.697 15.2733ZM179.181 19.672C178.27 19.123 177.225 18.8392 176.162 18.8523C175.658 18.858 175.161 18.9676 174.701 19.1742C174.242 19.3808 173.83 19.6801 173.492 20.0532C173.153 20.4264 172.895 20.8654 172.734 21.3427C172.573 21.8201 172.512 22.3256 172.555 22.8275C172.555 24.8766 173.717 26.8437 175.984 26.8437C176.658 26.8733 177.325 26.697 177.896 26.3383C178.467 25.9795 178.915 25.4554 179.181 24.8356V19.672Z" fill="black"/>
<path d="M192.915 15.2717C193.799 15.2488 194.679 15.4071 195.5 15.7368C196.321 16.0665 197.066 16.5606 197.689 17.1888C198.312 17.817 198.8 18.566 199.123 19.3898C199.446 20.2136 199.597 21.0947 199.567 21.979C199.567 22.1975 199.567 22.703 199.499 22.9215C199.483 23.0946 199.405 23.2561 199.28 23.3765C199.154 23.4969 198.99 23.5681 198.816 23.5772H189.527C189.543 24.0348 189.649 24.4847 189.839 24.9013C190.028 25.3178 190.299 25.6929 190.634 26.005C190.968 26.3171 191.362 26.5601 191.791 26.7202C192.22 26.8802 192.676 26.9541 193.133 26.9377C194.26 26.9603 195.359 26.5828 196.234 25.8722C196.589 25.5853 196.958 25.558 197.177 25.8722L198.406 27.4978C198.471 27.5603 198.522 27.6364 198.554 27.7206C198.586 27.8048 198.6 27.8951 198.593 27.9851C198.586 28.075 198.56 28.1624 198.516 28.2411C198.472 28.3198 198.411 28.3878 198.338 28.4403C196.837 29.7303 194.921 30.4338 192.942 30.4211C191.956 30.4217 190.981 30.2237 190.074 29.8389C189.166 29.4542 188.346 28.8905 187.661 28.1816C186.976 27.4727 186.442 26.6331 186.089 25.7129C185.735 24.7927 185.572 23.8109 185.606 22.8259C185.577 21.8466 185.744 20.8714 186.098 19.9579C186.452 19.0443 186.985 18.2109 187.667 17.5067C188.348 16.8026 189.163 16.2421 190.065 15.8582C190.966 15.4743 191.935 15.2749 192.915 15.2717ZM195.647 21.0091C195.608 20.3182 195.3 19.6699 194.79 19.2028C194.279 18.7356 193.606 18.4867 192.915 18.5092C192.18 18.4541 191.452 18.6824 190.88 19.1474C190.309 19.6123 189.937 20.2785 189.841 21.0091H195.647Z" fill="black"/>
<path d="M201.885 16.2834C201.885 16.101 201.956 15.9258 202.084 15.7956C202.212 15.6653 202.385 15.5903 202.568 15.5867H203.702C203.832 15.5729 203.964 15.6067 204.072 15.682C204.18 15.7573 204.257 15.869 204.289 15.9966L204.822 17.3626C205.345 16.6916 206.017 16.152 206.786 15.7867C207.554 15.4215 208.397 15.2408 209.248 15.2589C210.098 15.2206 210.944 15.4031 211.702 15.7885C212.461 16.1739 213.107 16.7491 213.578 17.4582C214.153 16.7768 214.867 16.2276 215.674 15.848C216.48 15.4684 217.359 15.2674 218.25 15.2589C222.881 15.2589 223.987 18.2095 223.987 21.9662V29.3701C223.986 29.4634 223.965 29.5554 223.928 29.6409C223.891 29.7264 223.837 29.8037 223.77 29.8684C223.702 29.9331 223.623 29.9839 223.536 30.018C223.449 30.052 223.357 30.0686 223.263 30.0668H220.75C220.567 30.0632 220.394 29.9882 220.266 29.858C220.138 29.7277 220.067 29.5525 220.067 29.3701V21.8569C220.067 19.9854 219.37 18.8243 217.553 18.8243C216.999 18.7662 216.44 18.879 215.952 19.1476C215.463 19.4162 215.069 19.8277 214.821 20.3269C214.821 20.3269 214.821 21.0509 214.821 21.6929V29.3428C214.818 29.5242 214.745 29.6974 214.618 29.8269C214.491 29.9565 214.319 30.0325 214.138 30.0395H211.734C211.642 30.0413 211.551 30.0246 211.465 29.9902C211.38 29.9559 211.302 29.9046 211.237 29.8395C211.172 29.7745 211.121 29.6969 211.086 29.6116C211.052 29.5262 211.035 29.4348 211.037 29.3428V21.8569C211.037 19.9854 210.504 18.8243 208.66 18.8243C208.018 18.84 207.4 19.0706 206.905 19.4793C206.41 19.8879 206.066 20.4509 205.928 21.0782V29.3564C205.925 29.5378 205.852 29.711 205.725 29.8406C205.598 29.9701 205.427 30.0462 205.245 30.0531H202.704C202.523 30.0462 202.351 29.9701 202.224 29.8406C202.097 29.711 202.025 29.5378 202.021 29.3564L201.885 16.2834Z" fill="black"/>
<path d="M225.493 16.5277C225.438 16.4252 225.412 16.3096 225.417 16.1934C225.423 16.0772 225.46 15.9647 225.524 15.8679C225.589 15.7711 225.678 15.6937 225.784 15.6439C225.889 15.5941 226.005 15.5737 226.121 15.5851H229.126C229.259 15.5734 229.391 15.6078 229.5 15.6826C229.61 15.7573 229.69 15.8677 229.728 15.9949L232.323 24.642H232.391L235.683 15.9949C235.902 15.6124 236.148 15.5851 236.599 15.5851H239.331C239.447 15.5737 239.563 15.5941 239.668 15.6439C239.774 15.6937 239.863 15.7711 239.928 15.8679C239.992 15.9647 240.029 16.0772 240.035 16.1934C240.04 16.3096 240.014 16.4252 239.959 16.5277L231.421 37.1002C231.368 37.2245 231.281 37.3314 231.17 37.4086C231.059 37.4859 230.928 37.5305 230.793 37.5374H227.788C227.67 37.5472 227.551 37.5247 227.445 37.4724C227.338 37.4201 227.248 37.34 227.183 37.2404C227.119 37.1409 227.083 37.0258 227.078 36.9073C227.074 36.7888 227.102 36.6714 227.159 36.5675L230.069 29.2318L225.493 16.5277Z" fill="black"/>
<path d="M3.15338 7.92256C2.50105 8.33544 1.95639 8.89768 1.56445 9.5628C1.17251 10.2279 0.944544 10.9768 0.899414 11.7475V26.5007C0.944544 27.2714 1.17251 28.0203 1.56445 28.6854C1.95639 29.3505 2.50105 29.9128 3.15338 30.3256L16.3903 37.7296C17.092 38.0734 17.863 38.2521 18.6443 38.2521C19.4256 38.2521 20.1966 38.0734 20.8983 37.7296L34.1489 30.3256C34.8012 29.9128 35.3458 29.3505 35.7378 28.6854C36.1297 28.0203 36.3577 27.2714 36.4028 26.5007V11.7475C36.3577 10.9768 36.1297 10.2279 35.7378 9.5628C35.3458 8.89768 34.8012 8.33544 34.1489 7.92256L20.9119 0.518616C20.2103 0.174826 19.4393 -0.00390625 18.658 -0.00390625C17.8766 -0.00390625 17.1056 0.174826 16.404 0.518616L3.15338 7.92256Z" fill="#14BF96"/>
<path d="M32.2503 15.4648C24.901 15.4648 19.4095 21.5574 19.4095 29.0296V29.3438H17.9342V29.0296C17.9342 21.5574 12.4701 15.4922 5.06611 15.4648C5.06611 15.9293 5.06611 16.4074 5.06611 16.8309C5.05152 19.5913 5.88114 22.2901 7.44375 24.5657C9.00637 26.8412 11.2273 28.5847 13.8088 29.5624C15.3797 30.1384 17.0396 30.4343 18.7129 30.4367C20.3995 30.4344 22.0728 30.1385 23.6579 29.5624C26.2358 28.5809 28.4527 26.836 30.0125 24.561C31.5722 22.286 32.4006 19.5892 32.3869 16.8309C32.3186 16.3938 32.2913 15.9293 32.2503 15.4648Z" fill="white"/>
<path d="M18.6616 16.0361C20.9249 16.0361 22.7597 14.2013 22.7597 11.938C22.7597 9.67464 20.9249 7.83984 18.6616 7.83984C16.3983 7.83984 14.5635 9.67464 14.5635 11.938C14.5635 14.2013 16.3983 16.0361 18.6616 16.0361Z" fill="white"/>
</g>
<defs>
<clipPath id="clip0_511_2761">
<rect width="240.423" height="38.2492" fill="white"/>
</clipPath>
</defs>
</svg>
